# xmcd CD database file
#
# Track frame offsets:
#	150
#	2223
#	11006
#	53889
#	101565
#	149531
#	185414
#	242945
#	257620
#	266129
#	294125
#
# Disc length: 4167 seconds
#
# Revision: 0
# Processed by: cddbd v1.5.2PL0 Copyright (c) Steve Scherf et al.
# Submitted via: CDex 1.70beta3
#
DISCID=9c10450b
DTITLE=原作：春野友矢　脚本：あさのハジメ - ディーふらぐ！　ドラマCD
DYEAR=2010
DGENRE=ドラマCD
TTITLE0=タイトルコール
TTITLE1=オープニングテーマ「ディーふらぐ（その他の職人天国！）」
TTITLE2=第１話「プロジェクトD～ゲーム製作部ドラマCD開発秘話～」
TTITLE3=第１話「プロジェクトD～ゲーム製作部ドラマCD開発秘話～」
TTITLE4=第１話「プロジェクトD～ゲーム製作部ドラマCD開発秘話～」
TTITLE5=第１話「プロジェクトD～ゲーム製作部ドラマCD開発秘話～」
TTITLE6=第２話「M人英雄伝アタル☆ドラマCD編」
TTITLE7=エンディングテーマ「ヒーロー」（Full ver）
TTITLE8=次回（嘘）予告
TTITLE9=キャストコメンタリー
TTITLE10=オマケ　「ﾃﾞｨｰふらぐ（その他の暇人天国！）full ver」
EXTD=YEAR: 2010
EXTT0=
EXTT1=
EXTT2=
EXTT3=
EXTT4=
EXTT5=
EXTT6=
EXTT7=
EXTT8=
EXTT9=
EXTT10=
PLAYORDER=
